<svg xmlns="http://www.w3.org/2000/svg" width="473.171" height="105.47" viewBox="0 0 473.171 105.47">
  <g id="ENG_SOFTWARE_LAB_LOGO" data-name="ENG+SOFTWARE+LAB+LOGO" transform="translate(-83.044 -187.008)">
    <g id="Raggruppa_1785" data-name="Raggruppa 1785">
      <g id="Raggruppa_1784" data-name="Raggruppa 1784">
        <path id="Tracciato_1742" data-name="Tracciato 1742" d="M285.032,250.633q-5.066,0-7.843-2.532a9.312,9.312,0,0,1-3-6.663H276.7a7.026,7.026,0,0,0,2.382,5.237,8.974,8.974,0,0,0,5.986,1.857,7.863,7.863,0,0,0,4.954-1.483,4.949,4.949,0,0,0,1.914-4.147,4.132,4.132,0,0,0-1.782-3.789,21.035,21.035,0,0,0-6.474-2.065,16.243,16.243,0,0,1-6.324-2.363,5.541,5.541,0,0,1-2.121-4.8,6.233,6.233,0,0,1,2.477-5.141,10.183,10.183,0,0,1,6.494-1.952,9.746,9.746,0,0,1,6.7,2.121,8.525,8.525,0,0,1,2.757,5.723h-2.439a6.138,6.138,0,0,0-2.2-4.259,7.436,7.436,0,0,0-4.785-1.484,7.808,7.808,0,0,0-4.8,1.332,4.264,4.264,0,0,0-1.763,3.584,3.579,3.579,0,0,0,1.669,3.286,17.7,17.7,0,0,0,5.611,1.782q1.839.338,3.04.657a15.972,15.972,0,0,1,2.551.938,7.009,7.009,0,0,1,2.121,1.408,6.523,6.523,0,0,1,1.3,2.025,7.365,7.365,0,0,1,.526,2.892,7.011,7.011,0,0,1-2.608,5.7A10.473,10.473,0,0,1,285.032,250.633Z"/>
        <path id="Tracciato_1743" data-name="Tracciato 1743" d="M311,250.671a11.4,11.4,0,0,1-9.026-3.94,16.337,16.337,0,0,1,0-20.041,12.374,12.374,0,0,1,18.109,0,16.262,16.262,0,0,1,0,20.041A11.5,11.5,0,0,1,311,250.671Zm0-2.252a8.754,8.754,0,0,0,7.3-3.321,14.791,14.791,0,0,0,0-16.775A8.754,8.754,0,0,0,311,225a8.662,8.662,0,0,0-7.243,3.321,14.881,14.881,0,0,0,0,16.775A8.663,8.663,0,0,0,311,248.419Z"/>
        <path id="Tracciato_1744" data-name="Tracciato 1744" d="M328.681,250.145V223.313h17.485v2.214H331.192v9.531h12.76v2.176h-12.76v12.91h-2.511Z"/>
        <path id="Tracciato_1745" data-name="Tracciato 1745" d="M358.516,250.145v-24.58h-9.084v-2.252h20.64v2.252h-9.044v24.58Z"/>
        <path id="Tracciato_1746" data-name="Tracciato 1746" d="M380.131,250.145,373,223.313h2.589l4.655,18.087,1.238,5.293h.076q.75-3.227,1.273-5.141l4.919-18.239h2.7l4.919,18.2,1.238,5.179h.076q.747-3.3,1.235-5.293l4.691-18.087h2.515l-7.279,26.832h-2.553l-5.105-19.553-1.049-4.353h-.076q-.564,2.628-1.014,4.353l-5.252,19.553Z"/>
        <path id="Tracciato_1747" data-name="Tracciato 1747" d="M405.012,250.145l10.131-26.832H418l10.209,26.832h-2.7l-3.116-8.444H410.715l-3.148,8.444Zm6.456-10.507h10.171l-3.681-10.022-1.35-3.9h-.075q-.714,2.289-1.314,3.9Z"/>
        <path id="Tracciato_1748" data-name="Tracciato 1748" d="M432.3,250.145V223.313h11.97a7.773,7.773,0,0,1,5.611,1.931,7.019,7.019,0,0,1,2.007,5.311q0,5.031-4.5,6.455v.114a4.721,4.721,0,0,1,2.871,2.308,12.036,12.036,0,0,1,1,4.822q.227,5.1,1.163,5.743v.148h-2.7a2.044,2.044,0,0,1-.619-1.425q-.166-1.127-.356-4.58-.148-3.411-1.443-4.691t-4.3-1.276h-8.185v11.973H432.3Zm2.512-14.111h8.6a6.293,6.293,0,0,0,4.39-1.37,4.989,4.989,0,0,0,1.5-3.885,5.361,5.361,0,0,0-1.314-3.92,5.77,5.77,0,0,0-4.241-1.332h-8.933v10.507Z"/>
        <path id="Tracciato_1749" data-name="Tracciato 1749" d="M457.362,250.145V223.313H475.6v2.214H459.877v9.645h14.409v2.176H459.877v10.469h16.138v2.327H457.362Z"/>
        <path id="Tracciato_1750" data-name="Tracciato 1750" d="M488.214,250.145V223.313h2.513v24.505h14.3v2.327Z"/>
        <path id="Tracciato_1751" data-name="Tracciato 1751" d="M507.615,250.145l10.131-26.832H520.6l10.212,26.832H528.1l-3.113-8.444H513.318l-3.151,8.444Zm6.453-10.507h10.171l-3.678-10.022-1.35-3.9h-.076q-.712,2.289-1.314,3.9Z"/>
        <path id="Tracciato_1752" data-name="Tracciato 1752" d="M534.9,250.145V223.313h11.146a7.958,7.958,0,0,1,5.7,1.951,6.146,6.146,0,0,1,1.951,4.8,5.636,5.636,0,0,1-4.089,5.818V236a7.488,7.488,0,0,1,3.812,2.346,6.406,6.406,0,0,1,1.405,4.261,7.266,7.266,0,0,1-1.951,5.253,8.421,8.421,0,0,1-6.345,2.289H534.9ZM537.41,235.1h8.6a5.2,5.2,0,0,0,3.789-1.314,4.685,4.685,0,0,0,1.353-3.526,4.489,4.489,0,0,0-1.353-3.491,5.279,5.279,0,0,0-3.715-1.238h-8.67Zm0,12.759h8.973a6.312,6.312,0,0,0,4.539-1.537,5.679,5.679,0,0,0-.242-7.621,6.219,6.219,0,0,0-4.3-1.426H537.41Z"/>
      </g>
    </g>
    <g id="Raggruppa_1786" data-name="Raggruppa 1786">
      <path id="Tracciato_1753" data-name="Tracciato 1753" d="M144.56,187.009A31.7,31.7,0,0,0,121.346,200.9L88.48,243.252a30.632,30.632,0,0,0-5.249,14.678s32.975,0,32.894-.04L144.667,221.1c0-.187.014-33.975.014-33.975" fill="#002e57"/>
      <path id="Tracciato_1754" data-name="Tracciato 1754" d="M84,268.613a31.364,31.364,0,0,1-.958-7.721h56.072v7.7Z" fill="#002e57"/>
      <path id="Tracciato_1755" data-name="Tracciato 1755" d="M84.955,271.6a31.577,31.577,0,0,0,4.143,7.682l50.018.081V271.6Z" fill="#002e57"/>
      <path id="Tracciato_1756" data-name="Tracciato 1756" d="M139.117,282.422H91.75a30.825,30.825,0,0,0,22.2,9.385h25.163v-9.385Z" fill="#002e57"/>
      <path id="Tracciato_1757" data-name="Tracciato 1757" d="M150.2,187.128V221.1l28.547,36.786c-.079.04,32.888.04,32.888.04a30.582,30.582,0,0,0-5.245-14.678L173.525,200.9a31.669,31.669,0,0,0-23.214-13.892" fill="#c70751"/>
      <path id="Tracciato_1758" data-name="Tracciato 1758" d="M210.76,268.613a31.608,31.608,0,0,0,.965-7.721h-56.08v7.7Z" fill="#c70751"/>
      <path id="Tracciato_1759" data-name="Tracciato 1759" d="M209.809,271.6a31.141,31.141,0,0,1-4.143,7.682l-50.021.081V271.6Z" fill="#c70751"/>
      <path id="Tracciato_1760" data-name="Tracciato 1760" d="M155.646,282.422h47.38a30.885,30.885,0,0,1-22.229,9.385H155.645v-9.385Z" fill="#c70751"/>
      <path id="Tracciato_1761" data-name="Tracciato 1761" d="M227.592,291.675V261.119H252.5v7.12H237.606v4.368h12.609v7.135H237.606v4.8h15.478v7.135Z"/>
      <path id="Tracciato_1762" data-name="Tracciato 1762" d="M278.208,277.784l-.368-6.956v-9.709h9.578v30.556h-9.371l-10.9-16.639.376,6.958v9.681h-9.581V261.119h9.372Z"/>
      <path id="Tracciato_1763" data-name="Tracciato 1763" d="M322.863,291.754h-6.447l-.374-3.019c-1.672,1.956-4.424,3.743-9.227,3.743-7.8,0-14.807-5.055-14.807-15.713,0-9.762,6.108-16.463,16-16.463,7.331,0,13.231,3.819,14.473,11.342h-9.515a4.959,4.959,0,0,0-5.126-3.859c-3.949,0-5.825,3.554-5.825,8.939,0,4.33,1.365,8.272,6.407,8.272,2.039,0,4.625-1.395,5.135-3.513h-4.406v-6.622h13.708v16.893Z"/>
      <rect id="Rettangolo_2318" data-name="Rettangolo 2318" width="10.024" height="30.556" transform="translate(328.928 261.119)"/>
      <path id="Tracciato_1764" data-name="Tracciato 1764" d="M365.416,277.784l-.374-6.956v-9.709h9.6v30.556h-9.388l-10.911-16.639.4,6.958v9.681h-9.594V261.119h9.365Z"/>
      <path id="Tracciato_1765" data-name="Tracciato 1765" d="M380.793,291.675V261.119h24.9v7.12H390.8v4.368h12.6v7.135H390.8v4.8h15.5v7.135Z"/>
      <path id="Tracciato_1766" data-name="Tracciato 1766" d="M411.412,291.675V261.119h24.922v7.12h-14.9v4.368h12.613v7.135H421.431v4.8h15.5v7.135Z"/>
      <path id="Tracciato_1767" data-name="Tracciato 1767" d="M451.434,281.014v10.661h-10V261.119h14.427c10.184,0,13.537,2.748,13.537,8.69,0,3.523-1.571,6.485-5.136,7.479,3.215,1.178,5.174,1.944,5.174,8.1,0,3.983-.134,5.348,1.06,5.348v.94H460.349a20.124,20.124,0,0,1-.511-5.363c0-3.968-.677-5.3-5.343-5.3Zm0-6.713H455.4c3.084,0,4.744-.753,4.744-2.869,0-2.174-1.709-3.192-4.034-3.192h-4.678V274.3Z"/>
      <rect id="Rettangolo_2319" data-name="Rettangolo 2319" width="10.014" height="30.556" transform="translate(475.081 261.119)"/>
      <path id="Tracciato_1768" data-name="Tracciato 1768" d="M511.573,277.784l-.382-6.956v-9.709h9.593v30.556H511.4L500.5,275.036l.384,6.958v9.681h-9.6V261.119h9.388Z"/>
      <path id="Tracciato_1769" data-name="Tracciato 1769" d="M556.215,291.754H549.77l-.374-3.019c-1.658,1.956-4.426,3.743-9.213,3.743-7.817,0-14.809-5.055-14.809-15.713,0-9.762,6.1-16.463,15.989-16.463,7.33,0,13.244,3.819,14.478,11.342h-9.5a4.983,4.983,0,0,0-5.139-3.859c-3.951,0-5.816,3.554-5.816,8.939,0,4.33,1.36,8.272,6.41,8.272,2.037,0,4.623-1.395,5.131-3.513h-4.416v-6.622h13.707v16.893Z"/>
    </g>
  </g>
</svg>
